<svg xmlns="http://www.w3.org/2000/svg" width="21" height="21" viewBox="0 0 21 21" fill="none">
  <path d="M3.35156 15.0894V10.0894C3.35156 8.10023 4.14174 6.19258 5.54826 4.78605C6.95478 3.37953 8.86244 2.58936 10.8516 2.58936C12.8407 2.58936 14.7483 3.37953 16.1549 4.78605C17.5614 6.19258 18.3516 8.10023 18.3516 10.0894V15.0894" stroke="black" stroke-width="2" stroke-linecap="round" stroke-linejoin="round"/>
  <path d="M18.3516 15.9225C18.3516 16.3646 18.176 16.7885 17.8634 17.101C17.5508 17.4136 17.1269 17.5892 16.6849 17.5892H15.8516C15.4095 17.5892 14.9856 17.4136 14.6731 17.101C14.3605 16.7885 14.1849 16.3646 14.1849 15.9225V13.4225C14.1849 12.9805 14.3605 12.5566 14.6731 12.244C14.9856 11.9315 15.4095 11.7559 15.8516 11.7559H18.3516V15.9225ZM3.35156 15.9225C3.35156 16.3646 3.52716 16.7885 3.83972 17.101C4.15228 17.4136 4.5762 17.5892 5.01823 17.5892H5.85156C6.29359 17.5892 6.71751 17.4136 7.03007 17.101C7.34263 16.7885 7.51823 16.3646 7.51823 15.9225V13.4225C7.51823 12.9805 7.34263 12.5566 7.03007 12.244C6.71751 11.9315 6.29359 11.7559 5.85156 11.7559H3.35156V15.9225Z" stroke="black" stroke-width="2" stroke-linecap="round" stroke-linejoin="round"/>
</svg>