<svg xmlns="http://www.w3.org/2000/svg" width="16" height="16" viewBox="0 0 16 16" fill="none">
  <g clip-path="url(#clip0_2044_11957)">
    <path d="M7.9987 10.6693C9.47146 10.6693 10.6654 9.47536 10.6654 8.0026C10.6654 6.52984 9.47146 5.33594 7.9987 5.33594C6.52594 5.33594 5.33203 6.52984 5.33203 8.0026C5.33203 9.47536 6.52594 10.6693 7.9987 10.6693Z" stroke="#B3B3B3" stroke-width="1.5" stroke-linecap="round" stroke-linejoin="round"/>
    <path d="M10.6654 5.33552V8.66886C10.6654 9.19929 10.8761 9.708 11.2512 10.0831C11.6262 10.4581 12.1349 10.6689 12.6654 10.6689C13.1958 10.6689 13.7045 10.4581 14.0796 10.0831C14.4547 9.708 14.6654 9.19929 14.6654 8.66886V8.00219C14.6653 6.49754 14.1562 5.03718 13.2209 3.85854C12.2856 2.67991 10.9791 1.85234 9.5138 1.51039C8.04852 1.16844 6.51066 1.33222 5.15027 1.9751C3.78988 2.61799 2.68697 3.70216 2.02088 5.05134C1.35478 6.40052 1.16468 7.93535 1.48148 9.40627C1.79828 10.8772 2.60335 12.1977 3.76579 13.153C4.92823 14.1084 6.37966 14.6424 7.88408 14.6683C9.38851 14.6942 10.8574 14.2104 12.052 13.2955" stroke="#B3B3B3" stroke-width="1.5" stroke-linecap="round" stroke-linejoin="round"/>
  </g>
  <defs>
    <clipPath id="clip0_2044_11957">
      <rect width="16" height="16" fill="white"/>
    </clipPath>
  </defs>
</svg>