<svg xmlns="http://www.w3.org/2000/svg" width="17" height="17" viewBox="0 0 17 17" fill="none">
  <path d="M14.8047 8.22735C14.807 9.10727 14.6014 9.97528 14.2047 10.7607C13.7343 11.7019 13.0112 12.4935 12.1163 13.0469C11.2215 13.6003 10.1902 13.8936 9.13802 13.894C8.25811 13.8963 7.3901 13.6907 6.60469 13.294L2.80469 14.5607L4.07135 10.7607C3.67464 9.97528 3.46906 9.10727 3.47135 8.22735C3.47176 7.17519 3.7651 6.14392 4.3185 5.24905C4.87191 4.35419 5.66352 3.63107 6.60469 3.16069C7.3901 2.76398 8.25811 2.55839 9.13802 2.56069H9.47135C10.8609 2.63735 12.1734 3.22386 13.1574 4.20793C14.1415 5.19199 14.728 6.50446 14.8047 7.89402V8.22735Z" stroke="black" stroke-width="2" stroke-linecap="round" stroke-linejoin="round"/>
</svg>