<svg xmlns="http://www.w3.org/2000/svg" width="25" height="25" viewBox="0 0 25 25" fill="none">
  <path d="M12.8516 13.0894C13.4038 13.0894 13.8516 12.6416 13.8516 12.0894C13.8516 11.5371 13.4038 11.0894 12.8516 11.0894C12.2993 11.0894 11.8516 11.5371 11.8516 12.0894C11.8516 12.6416 12.2993 13.0894 12.8516 13.0894Z" stroke="black" stroke-width="2" stroke-linecap="round" stroke-linejoin="round"/>
  <path d="M12.8516 6.08936C13.4038 6.08936 13.8516 5.64164 13.8516 5.08936C13.8516 4.53707 13.4038 4.08936 12.8516 4.08936C12.2993 4.08936 11.8516 4.53707 11.8516 5.08936C11.8516 5.64164 12.2993 6.08936 12.8516 6.08936Z" stroke="black" stroke-width="2" stroke-linecap="round" stroke-linejoin="round"/>
  <path d="M12.8516 20.0894C13.4038 20.0894 13.8516 19.6416 13.8516 19.0894C13.8516 18.5371 13.4038 18.0894 12.8516 18.0894C12.2993 18.0894 11.8516 18.5371 11.8516 19.0894C11.8516 19.6416 12.2993 20.0894 12.8516 20.0894Z" stroke="black" stroke-width="2" stroke-linecap="round" stroke-linejoin="round"/>
</svg>