<svg xmlns="http://www.w3.org/2000/svg" width="17" height="17" viewBox="0 0 17 17" fill="none">
  <g clip-path="url(#clip0_2047_11973)">
    <path d="M7.84375 3.125H3.17708C2.82346 3.125 2.48432 3.26548 2.23427 3.51552C1.98423 3.76557 1.84375 4.10471 1.84375 4.45833V13.7917C1.84375 14.1453 1.98423 14.4844 2.23427 14.7345C2.48432 14.9845 2.82346 15.125 3.17708 15.125H12.5104C12.864 15.125 13.2032 14.9845 13.4532 14.7345C13.7033 14.4844 13.8438 14.1453 13.8438 13.7917V9.125" stroke="#FFFBEB" stroke-width="1.5" stroke-linecap="round" stroke-linejoin="round"/>
    <path d="M12.8438 2.12515C13.109 1.85993 13.4687 1.71094 13.8438 1.71094C14.2188 1.71094 14.5785 1.85993 14.8438 2.12515C15.109 2.39037 15.258 2.75008 15.258 3.12515C15.258 3.50022 15.109 3.85993 14.8438 4.12515L8.51042 10.4585L5.84375 11.1252L6.51042 8.45848L12.8438 2.12515Z" stroke="#FFFBEB" stroke-width="1.5" stroke-linecap="round" stroke-linejoin="round"/>
  </g>
  <defs>
    <clipPath id="clip0_2047_11973">
      <rect width="16" height="16" fill="white" transform="translate(0.511719 0.460938)"/>
    </clipPath>
  </defs>
</svg>